<?xml version="1.0" encoding="UTF-8"?>
<svg width="895px" height="526px" viewBox="0 0 895 526" version="1.1" xmlns="http://www.w3.org/2000/svg" xmlns:xlink="http://www.w3.org/1999/xlink">
    <title>Group 2</title>
    <g id="Page-1" stroke="none" stroke-width="1" fill="none" fill-rule="evenodd">
        <g id="Group-2" transform="translate(0.000000, 0.908696)" fill-rule="nonzero">
            <path d="M752.771134,335.50158 C788.001453,342.309847 816.885318,353.916712 838.623174,370.002267 C842.909866,373.190411 846.989861,376.560895 850.846346,380.099829 C866.567563,394.536636 899.279289,424.575037 891.943388,460.765487 C885.776832,491.181214 854.764157,508.562801 845.409383,513.164533 C826.659857,522.400809 809.089673,525.091304 795.097489,525.091304 C790.138142,525.091304 785.187388,524.752704 780.295758,524.082368 C746.364713,519.415014 726.675712,500.770207 719.779565,492.977612 L719.659632,492.829963 L719.659632,492.657706 L719,331.982609" id="Path" fill="#0D6EFD"></path>
            <path d="M5.61628395,125.311657 L10.9021983,229.559976 L80.6902828,239.947826 L143,218.662596 L129.605013,0.0575276495 L129.605013,0 C115.589331,0.632804145 66.9549146,5.27610728 31.9056987,38.7407628 C21.1236348,49.0217756 2.63294595,70.9233736 0,102.021177 C0,102.456744 3.61404369,127.497708 3.61404369,127.497708 L3.61404369,127.374434" id="Path" fill="#0D6EFD"></path>
            <path d="M168.221556,512.765217 C142.232728,512.765217 90.9447749,510.298272 54.1405957,479.872607 C25.4929103,456.157035 18.2260341,425.887611 16.4368032,409.975811 L9,267.715272 L10.3094371,267.591925 C13.8179289,283.684634 22.8240575,306.865701 45.8341663,325.926969 C70.2836563,346.17237 104.938759,357.092717 148.849884,358.375529 C155.337095,358.572884 161.184581,358.539992 166.532283,358.490653 C234.023271,357.668337 271.327235,334.64351 322.965038,302.680116 C361.94828,278.58628 410.407449,248.604665 486.564712,219.996318 C586.521744,182.44118 672.174925,170.18046 741.25523,183.559529 C795.112079,193.978263 826.828445,214.511475 843.951084,229.896993 C852.472502,237.276657 860.104883,245.318083 866.741288,253.908599 C876.956896,267.468577 883.034284,281.43149 884.803523,295.394403 L885.363283,305.336195 C885.363283,307.178181 885.266658,308.9489 885.073407,310.648351 C885.195685,311.013202 885.34934,311.370439 885.53321,311.717361 L885.743119,312.23542 L886.052986,317.539353 L893,442.432594 L891.690563,442.555941 C885.333296,413.487097 862.133269,392.649628 852.227527,383.752177 C835.234831,368.481783 803.728375,348.096588 750.201384,337.702523 C681.410955,324.389239 596.007666,336.617067 496.360501,374.073527 C420.333183,402.681874 371.953979,432.630596 332.970737,456.69154 C281.143015,488.761835 243.689116,511.893563 175.768312,512.715878 C173.60924,512.740548 171.040345,512.765217 168.221556,512.765217 Z" id="Path" fill="#00ACED"></path>
            <path d="M161.223357,372.247826 C135.234235,372.247826 83.9357056,369.78133 47.1311103,339.320108 C18.4930968,315.600641 11.2161426,285.34496 9.43688728,269.436063 L2,127.185033 L3.30945193,127.061708 C6.80798761,143.151482 15.814218,166.32832 38.824587,185.38611 C63.2743535,205.627818 97.9298484,216.546173 141.841469,217.82875 C148.328754,218.02607 154.176306,217.993183 159.524068,217.935632 C227.025815,217.113467 264.330201,194.09284 315.958592,162.143499 C354.942275,138.054057 403.411988,108.077912 479.560116,79.466562 C579.518279,41.926497 665.172428,29.6680133 734.253514,43.0364201 C788.110972,53.4614754 819.827697,73.9909414 836.960526,89.3736531 C845.482886,96.7759493 853.112104,104.840793 859.740991,113.454873 C869.956715,127.012378 876.034171,140.972744 877.813427,154.933109 L878.363196,164.873087 C878.363196,166.706516 878.243247,168.482393 878.073318,170.176053 C878.19353,170.544042 878.347233,170.90407 878.533125,171.25309 L878.753033,171.771054 L879.052908,177.074019 L886,301.96092 L884.690548,302.084244 C878.343205,273.00426 855.132919,252.154149 845.227066,243.274765 C828.234178,228.007156 796.727365,207.62568 743.199769,197.233511 C674.428554,183.914434 589.004308,196.18114 489.356016,233.622545 C413.337834,262.184565 364.908104,292.127823 325.994391,316.184378 C274.166084,348.248823 236.721757,371.376331 168.79019,372.190275 C166.641089,372.190275 164.062169,372.247826 161.223357,372.247826 Z" id="Path" fill="#20C997"></path>
            <line x1="895" y1="462.203609" x2="894" y2="462.252913" id="Path" fill="#EA1C00"></line>
            <polygon id="Path" fill="#EA1C00" points="2 127.792761 2 127.768109 3 127.768109"></polygon>
        </g>
    </g>
</svg>