<svg id="visual" viewBox="0 0 1920 160" width="1920" height="160" xmlns="http://www.w3.org/2000/svg" xmlns:xlink="http://www.w3.org/1999/xlink" version="1.1"><path d="M0 54L32 48.3C64 42.7 128 31.3 192 35.3C256 39.3 320 58.7 384 68C448 77.3 512 76.7 576 67.7C640 58.7 704 41.3 768 38.3C832 35.3 896 46.7 960 60.5C1024 74.3 1088 90.7 1152 98C1216 105.3 1280 103.7 1344 87.7C1408 71.7 1472 41.3 1536 28C1600 14.7 1664 18.3 1728 25.7C1792 33 1856 44 1888 49.5L1920 55L1920 161L1888 161C1856 161 1792 161 1728 161C1664 161 1600 161 1536 161C1472 161 1408 161 1344 161C1280 161 1216 161 1152 161C1088 161 1024 161 960 161C896 161 832 161 768 161C704 161 640 161 576 161C512 161 448 161 384 161C320 161 256 161 192 161C128 161 64 161 32 161L0 161Z" fill="#20c997"></path><path d="M0 129L32 116.8C64 104.7 128 80.3 192 73.7C256 67 320 78 384 89.2C448 100.3 512 111.7 576 106C640 100.3 704 77.7 768 77.2C832 76.7 896 98.3 960 102.5C1024 106.7 1088 93.3 1152 85.7C1216 78 1280 76 1344 80.5C1408 85 1472 96 1536 97.7C1600 99.3 1664 91.7 1728 85C1792 78.3 1856 72.7 1888 69.8L1920 67L1920 161L1888 161C1856 161 1792 161 1728 161C1664 161 1600 161 1536 161C1472 161 1408 161 1344 161C1280 161 1216 161 1152 161C1088 161 1024 161 960 161C896 161 832 161 768 161C704 161 640 161 576 161C512 161 448 161 384 161C320 161 256 161 192 161C128 161 64 161 32 161L0 161Z" fill="#00aced"></path><path d="M0 99L32 102.2C64 105.3 128 111.7 192 112.3C256 113 320 108 384 111.2C448 114.3 512 125.7 576 123.5C640 121.3 704 105.7 768 105.8C832 106 896 122 960 128.3C1024 134.7 1088 131.3 1152 124.2C1216 117 1280 106 1344 103C1408 100 1472 105 1536 104.8C1600 104.7 1664 99.3 1728 104C1792 108.7 1856 123.3 1888 130.7L1920 138L1920 161L1888 161C1856 161 1792 161 1728 161C1664 161 1600 161 1536 161C1472 161 1408 161 1344 161C1280 161 1216 161 1152 161C1088 161 1024 161 960 161C896 161 832 161 768 161C704 161 640 161 576 161C512 161 448 161 384 161C320 161 256 161 192 161C128 161 64 161 32 161L0 161Z" fill="#0d6efd"></path></svg>