<svg xmlns="http://www.w3.org/2000/svg" xmlns:xlink="http://www.w3.org/1999/xlink" width="546" height="268" viewBox="0 0 546 268"><defs><style>.a,.c,.i,.j{fill:#fff;}.a,.f,.g{stroke:#adb5bd;}.b{fill:#0d6efd;stroke:#0d6efd;}.c,.d{font-size:12px;}.c,.d,.j{font-family:SegoeUI, Segoe UI;}.e,.g,.l,.n{fill:none;}.e{stroke:#000;}.f,.h,.k{fill:#adb5bd;}.j{font-size:8px;}.k{font-size:30px;font-family:SegoeUI-Light, Segoe UI;font-weight:300;}.l{stroke:#ced4da;stroke-linecap:round;stroke-width:2px;}.m{stroke:none;}.o{filter:url(#c);}.p{filter:url(#a);}</style><filter id="a" x="0" y="50" width="318" height="168" filterUnits="userSpaceOnUse"><feOffset dy="3" input="SourceAlpha"/><feGaussianBlur stdDeviation="3" result="b"/><feFlood flood-opacity="0.161"/><feComposite operator="in" in2="b"/><feComposite in="SourceGraphic"/></filter><filter id="c" x="378" y="0" width="168" height="268" filterUnits="userSpaceOnUse"><feOffset dy="3" input="SourceAlpha"/><feGaussianBlur stdDeviation="3" result="d"/><feFlood flood-opacity="0.161"/><feComposite operator="in" in2="d"/><feComposite in="SourceGraphic"/></filter></defs><g transform="translate(9 6)"><g transform="translate(-199 -201)"><g class="p" transform="matrix(1, 0, 0, 1, 190, 195)"><g class="a" transform="translate(9 56)"><rect class="m" width="300" height="150"/><rect class="n" x="0.5" y="0.5" width="299" height="149"/></g></g><g class="a" transform="translate(209 261)"><circle class="m" cx="3.5" cy="3.5" r="3.5"/><circle class="n" cx="3.5" cy="3.5" r="3"/></g><g class="a" transform="translate(227 261)"><circle class="m" cx="3.5" cy="3.5" r="3.5"/><circle class="n" cx="3.5" cy="3.5" r="3"/></g><g class="a" transform="translate(218 261)"><circle class="m" cx="3.5" cy="3.5" r="3.5"/><circle class="n" cx="3.5" cy="3.5" r="3"/></g><g transform="translate(-6 10)"><g class="b" transform="translate(240 341)"><rect class="m" width="54" height="24" rx="4"/><rect class="n" x="0.5" y="0.5" width="53" height="23" rx="3.5"/></g><text class="c" transform="translate(252 358)"><tspan x="0" y="0">Send!</tspan></text></g><g transform="translate(0 -7)"><g class="a" transform="translate(234 305)"><rect class="m" width="230" height="28" rx="4"/><rect class="n" x="0.5" y="0.5" width="229" height="27" rx="3.5"/></g><text class="d" transform="translate(240 324)"><tspan x="0" y="0">I hope you have a great day!</tspan></text></g><line class="e" y2="15" transform="translate(392.5 304.5)"/></g><g transform="translate(104 -479)"><g class="o" transform="matrix(1, 0, 0, 1, -113, 473)"><g class="a" transform="translate(387 6)"><rect class="m" width="150" height="250" rx="4"/><rect class="n" x="0.5" y="0.5" width="149" height="249" rx="3.5"/></g></g><g class="f" transform="translate(319 479)"><path class="m" d="M0,0H60a0,0,0,0,1,0,0V6a4,4,0,0,1-4,4H4A4,4,0,0,1,0,6V0A0,0,0,0,1,0,0Z"/><path class="n" d="M1,.5H59a.5.5,0,0,1,.5.5V6A3.5,3.5,0,0,1,56,9.5H4A3.5,3.5,0,0,1,.5,6V1A.5.5,0,0,1,1,.5Z"/></g><line class="g" x2="50" transform="translate(324 718.5)"/><path class="h" d="M8.929,4.285H8.214V3.245a3.214,3.214,0,1,0-6.429-.031V4.285H1.071A1.072,1.072,0,0,0,0,5.357v5a1.072,1.072,0,0,0,1.071,1.071H8.929A1.072,1.072,0,0,0,10,10.357v-5A1.072,1.072,0,0,0,8.929,4.285ZM2.857,3.214a2.143,2.143,0,1,1,4.286,0V4.285H2.857Zm6.071,7.143H1.071v-5H8.929Z" transform="translate(344 499.429)"/><g transform="translate(0 47)"><g class="f" transform="translate(279 540)"><rect class="m" width="140" height="34" rx="4"/><rect class="n" x="0.5" y="0.5" width="139" height="33" rx="3.5"/></g><path class="i" d="M9.063,64H.938A.937.937,0,0,0,0,64.937v5.625a.937.937,0,0,0,.938.938H9.063A.937.937,0,0,0,10,70.562V64.937A.937.937,0,0,0,9.063,64Zm0,.938v.8c-.438.357-1.136.911-2.629,2.08-.329.259-.98.88-1.434.873s-1.105-.614-1.434-.873c-1.492-1.169-2.191-1.723-2.629-2.08v-.8ZM.938,70.562V66.937c.448.356,1.082.857,2.05,1.614A3.588,3.588,0,0,0,5,69.625a3.583,3.583,0,0,0,2.013-1.073c.967-.757,1.6-1.258,2.05-1.614v3.625Z" transform="translate(284 480)"/><text class="j" transform="translate(284 565)"><tspan x="0" y="0">Notification</tspan></text></g><text class="k" transform="translate(323 548)"><tspan x="0" y="0">9:00</tspan></text></g><g transform="translate(-101 474) rotate(-90)"><line class="l" y2="50" transform="translate(349 411)"/><path class="l" d="M0,10H10V0" transform="translate(349 454.429) rotate(45)"/></g></g></svg>