<svg id="Layer_1" data-name="Layer 1" xmlns="http://www.w3.org/2000/svg" xmlns:xlink="http://www.w3.org/1999/xlink" viewBox="0 0 80 95"><defs><style>.cls-1{stroke:#963;stroke-miterlimit:10;fill:url(#linear-gradient);}.cls-2{fill:#3f291a;}</style><linearGradient id="linear-gradient" x1="40" y1="2" x2="40" y2="93" gradientUnits="userSpaceOnUse"><stop offset="0.15" stop-color="#b08861"/><stop offset="0.67" stop-color="#963"/><stop offset="0.85" stop-color="#963"/></linearGradient></defs><path class="cls-1" d="M64.5,16V9h4V2h-58V9h4v7H1.5V34.1C1.5,43.16,8.31,51,16.36,51H20.7c3.6,5.33,8.4,10.07,13.8,11.85v9.48c-3.6,1.19-6,3.56-6,6.52V83h-8V93h38V83h-6V78.85c0-3-2.4-4.74-6-6.52V62.85C51.9,61.07,56.7,56.33,60.3,51h2.93C71.5,51,78.5,43.76,78.5,34.1V16ZM16.41,45C11.32,45,7.5,40.16,7.5,34.11V22h7v9.68c0,4.24,1.27,9.08,1.91,13.32ZM72.5,34.11c0,6-3.5,10.89-8.17,10.89H63.17A35.67,35.67,0,0,0,65.5,31.68V22h7Z"/><path class="cls-2" d="M37.67,32h-7.9c-1.61,0-2,2-2,3.29H39.64C39.64,34,39.28,32,37.67,32Z"/><path class="cls-2" d="M40.39,39.57A4.39,4.39,0,0,1,38,36.31H29.48A4.37,4.37,0,0,1,27,39.57c-2.67,1.48-3.28,1.81-3.28,3.46v4.8H43.68V43C43.68,41.38,43.06,41.05,40.39,39.57Z"/><path class="cls-2" d="M26.74,51h14c1.75,0,2.75-.47,2.94-1.87H23.8C24,50.53,25,51,26.74,51Z"/><path class="cls-2" d="M60.93,12.65a30.87,30.87,0,0,0-10.72,5.77,5.63,5.63,0,0,1,.85,1s-.58-.24-1.39-.52A15,15,0,0,0,46.56,23c-.08.15-.15.3-.22.46a22.3,22.3,0,0,1,2.54,3.2l-3-2.11a15.21,15.21,0,0,0-1.17,5.38,6.27,6.27,0,0,1,2.05.72s-.9.07-2,.19a10.18,10.18,0,0,0,2.92,6.76v8.8a.89.89,0,0,0,1,.78.9.9,0,0,0,1-.78V38.46c0-.15,0-.29,0-.44a17.35,17.35,0,0,0,5.62-4.31c.46-.59.87-1.16,1.23-1.73-1.85-.13-3.64-.21-3.64-.21a11.83,11.83,0,0,1,4.56-1.47A18.56,18.56,0,0,0,58.8,26a32.58,32.58,0,0,0-5.14,1A14.4,14.4,0,0,1,59,24.79c.22-1.39.33-2.71.47-3.92,0-.12,0-.24,0-.36a17.76,17.76,0,0,0-2.6.16,10.73,10.73,0,0,1,2.8-1.6C60.21,15.89,60.93,12.65,60.93,12.65Z"/></svg>