<svg id="Layer_1" data-name="Layer 1" xmlns="http://www.w3.org/2000/svg" xmlns:xlink="http://www.w3.org/1999/xlink" viewBox="0 0 80 95"><defs><style>.cls-1{stroke:#00c998;stroke-miterlimit:10;fill:url(#linear-gradient);}.cls-2{fill:#00c998;}</style><linearGradient id="linear-gradient" x1="40" y1="9.09" x2="40" y2="93.75" gradientUnits="userSpaceOnUse"><stop offset="0.01" stop-color="#ffc3ff"/><stop offset="0.08" stop-color="#fff"/><stop offset="0.44" stop-color="#fff"/><stop offset="0.61" stop-color="#96e5d2"/><stop offset="0.72" stop-color="#00c998"/><stop offset="0.83" stop-color="#fe6aff"/><stop offset="0.98" stop-color="#fff"/></linearGradient></defs><path class="cls-1" d="M64.5,16V9h4V2h-58V9h4v7H1.5V34.1C1.5,43.16,8.31,51,16.36,51H20.7c3.6,5.33,8.4,10.07,13.8,11.85v9.48c-3.6,1.19-6,3.56-6,6.52V83h-8V93h38V83h-6V78.85c0-3-2.4-4.74-6-6.52V62.85C51.9,61.07,56.7,56.33,60.3,51h2.93C71.5,51,78.5,43.76,78.5,34.1V16ZM16.41,45C11.32,45,7.5,40.16,7.5,34.11V22h7v9.68c0,4.24,1.27,9.08,1.91,13.32ZM72.5,34.11c0,6-3.5,10.89-8.17,10.89H63.17A35.67,35.67,0,0,0,65.5,31.68V22h7Z"/><path class="cls-2" d="M50,14.31a1.17,1.17,0,0,0-.94.34c-2.36,2.5-2.74,6.42-2.78,8.36A11.66,11.66,0,0,0,29.08,37.07a20.18,20.18,0,0,0-2.29-.29,10.92,10.92,0,0,0-6.46,1.32,1.2,1.2,0,0,0-.1,1.92c.81.71,2.22,1.24,3.12,3.44a7.05,7.05,0,0,0,2.74,3.36c2,1.32,2.2,2.81,2.74,3.75a1.2,1.2,0,0,0,1.9.28c2.36-2.49,2.74-6.42,2.78-8.36a11.66,11.66,0,0,0,17.23-14c2.88.54,6.27.5,8.75-1a1.2,1.2,0,0,0,.1-1.92,10.69,10.69,0,0,1-2.17-1.83c-1.18-1.45-.74-1.88-2.06-3.5s-1.83-1.27-3-2.71A11.15,11.15,0,0,1,51,14.94a1.21,1.21,0,0,0-1-.63Zm-.1,1.13c.23,0,.43,1.35,1.55,2.72,1.31,1.61,1.83,1.27,3,2.71s.74,1.88,2.06,3.49a6.3,6.3,0,0,0,1.62,1.47c.19.13.74.49.73.61-2.4,1.49-6,1.37-8.76.71L50,27a10.31,10.31,0,0,0,3.55-1.28.57.57,0,0,0-.59-1,10.11,10.11,0,0,1-3.63,1.22c-.19-.26-.39-.51-.59-.75a10.45,10.45,0,0,1,1.89-3.28.57.57,0,0,0-.84-.77,11.29,11.29,0,0,0-1.91,3.15c-.14-.14-.29-.27-.44-.4-.1-2.79.52-6.39,2.45-8.43Zm-9,6.85a10.7,10.7,0,0,1,1.69.31l-2.1,20.65a10.91,10.91,0,0,1-3.41-.34l2.1-20.66a11,11,0,0,1,1.72,0Zm-2.87.1-2,20.15a10.32,10.32,0,0,1-3.24-2l.29-2.79A.57.57,0,0,0,32,37.62l-.19,1.82A10.51,10.51,0,0,1,33.27,24.6l0,0L32.21,35.34c-.06.62,1.06.74,1.13.11l1.19-11.74a10.53,10.53,0,0,1,3.58-1.32Zm5.66.58A10.51,10.51,0,0,1,47,25l-.36,3.5a.57.57,0,0,0,1.13.12L48,26.08l0,0a10.51,10.51,0,0,1-1.5,14.79l0,0,1-10a.57.57,0,0,0-1.13-.12l-1.12,11a10.36,10.36,0,0,1-3.58,1.34ZM27.45,38a17.42,17.42,0,0,1,2.24.38l.3.51A11.55,11.55,0,0,0,26.67,40a.57.57,0,0,0,.56,1,10.91,10.91,0,0,1,3.47-1.12c.2.25.4.5.62.73a10.35,10.35,0,0,1-1.81,3.18.57.57,0,0,0,.85.75,10.88,10.88,0,0,0,1.84-3.06l.16.14c0,1.06.06,5.78-2.45,8.44-.37.09-.42-2.34-3.19-4.19A6,6,0,0,1,24.4,43c-1.23-3-3.5-3.58-3.47-4a10.1,10.1,0,0,1,5.76-1.15c.27,0,.52,0,.76.06Z"/></svg>