<svg id="Layer_1" data-name="Layer 1" xmlns="http://www.w3.org/2000/svg" viewBox="0 0 80 95"><defs><style>.cls-1{fill:#fff;}.cls-2{fill:#00c998;}</style></defs><g id="Layer_2" data-name="Layer 2"><path class="cls-1" d="M62.05,28.1a1.12,1.12,0,0,0-.78-.62c-3.37-.7-6.91,1-8.57,2a11.67,11.67,0,0,0-21-7.27,19.64,19.64,0,0,0-1-2.1,10.81,10.81,0,0,0-4.51-4.79,1.2,1.2,0,0,0-1.69.92c-.18,1.06.12,2.54-1.28,4.46a7,7,0,0,0-1.42,4.09c-.09,2.38-1.23,3.36-1.75,4.31a1.19,1.19,0,0,0,.76,1.76c3.37.7,6.9-1,8.57-2a11.66,11.66,0,0,0,21,7.27c1.05,2.73,2.86,5.6,5.48,6.9a1.19,1.19,0,0,0,1.68-.92A11.12,11.12,0,0,1,58,39.29c.61-1.76,1.21-1.61,1.89-3.58s.12-2.23.73-4A11.05,11.05,0,0,1,62,29.25a1.23,1.23,0,0,0,0-1.15Z"/><path class="cls-2" d="M62.05,28.1a1.12,1.12,0,0,0-.78-.62c-3.37-.7-6.91,1-8.57,2a11.67,11.67,0,0,0-21-7.27,19.64,19.64,0,0,0-1-2.1,10.81,10.81,0,0,0-4.51-4.79,1.2,1.2,0,0,0-1.69.92c-.18,1.06.12,2.54-1.28,4.46a7,7,0,0,0-1.42,4.09c-.09,2.38-1.23,3.36-1.75,4.31a1.19,1.19,0,0,0,.76,1.76c3.37.7,6.9-1,8.57-2a11.66,11.66,0,0,0,21,7.27c1.05,2.73,2.86,5.6,5.48,6.9a1.19,1.19,0,0,0,1.68-.92A11.12,11.12,0,0,1,58,39.29c.61-1.76,1.21-1.61,1.89-3.58s.12-2.23.73-4A11.05,11.05,0,0,1,62,29.25a1.23,1.23,0,0,0,0-1.15Zm-1,.51c.1.2-.92,1.07-1.5,2.74-.68,2-.12,2.22-.73,4S57.6,37,56.92,38.92a6.31,6.31,0,0,0-.39,2.16c0,.22,0,.88-.14.93-2.53-1.26-4.34-4.42-5.21-7.08l.11-.19a10.62,10.62,0,0,0,3,2.34.57.57,0,0,0,.51-1,10.07,10.07,0,0,1-2.94-2.45,9.44,9.44,0,0,0,.32-.89,10.55,10.55,0,0,1,3.79-.12.56.56,0,0,0,.21-1.11,11,11,0,0,0-3.68,0c0-.19.07-.38.1-.58C54.89,29.38,58.27,28,61,28.59c0,0,0,0,0,0Zm-10.54-4a11.08,11.08,0,0,1,.63,1.6L32.46,35.27A10.86,10.86,0,0,1,31,32.19l18.67-9.07a9.9,9.9,0,0,1,.87,1.48Zm-1.59-2.4L30.69,31.06a10.44,10.44,0,0,1,0-3.82L33.23,26a.57.57,0,0,0-.5-1l-1.64.79a10.51,10.51,0,0,1,13.39-6.54l.05,0L34.79,24c-.55.28-.07,1.3.5,1L45.9,19.86a10.43,10.43,0,0,1,3,2.34Zm2.49,5.13a10.38,10.38,0,0,1,0,3.81l-3.17,1.54a.57.57,0,0,0,.5,1L51,32.59v0A10.5,10.5,0,0,1,37.6,39.12h0l9.1-4.42a.57.57,0,0,0-.5-1l-10,4.85a10.57,10.57,0,0,1-3-2.34Zm-21.35-6a15.25,15.25,0,0,1,.85,2.1l-.28.53a11.1,11.1,0,0,0-2.72-2.22.57.57,0,0,0-.55,1,10.77,10.77,0,0,1,2.78,2.36q-.16.45-.3.9a10.32,10.32,0,0,1-3.65.14.57.57,0,0,0-.2,1.12,11.08,11.08,0,0,0,3.58-.05c0,.07,0,.14,0,.21-.88.6-4.89,3.1-8.46,2.35-.28-.26,1.77-1.58,1.88-4.92a6,6,0,0,1,1.2-3.46c1.93-2.63,1.21-4.86,1.55-5a10.12,10.12,0,0,1,4,4.3c.13.23.24.46.35.68Z"/><path class="cls-2" d="M64.5,41.15V37.08h4V33h-58v4.08h4v4.07H1.5V51.7c0,5.27,6.81,9.84,14.86,9.84H20.7a30.34,30.34,0,0,0,13.8,6.9V74c-3.6.69-6,2.07-6,3.8v2.42h-8V86h38V80.18h-6V77.76c0-1.73-2.4-2.76-6-3.8V68.44a30.34,30.34,0,0,0,13.8-6.9h2.93c8.27,0,15.27-4.22,15.27-9.84V41.15ZM16.41,58C11.32,58,7.5,55.22,7.5,51.7V44.65h7v5.64c0,2.47,1.27,5.29,1.91,7.75ZM72.5,51.7C72.5,55.22,69,58,64.33,58H63.17a13.29,13.29,0,0,0,2.33-7.75V44.65h7Z"/><path class="cls-1" d="M27.18,71.15a.7.7,0,0,0-.6.16,8,8,0,0,0-2.17,5A7.25,7.25,0,0,0,13,84.12a13.93,13.93,0,0,0-1.41-.3,6.72,6.72,0,0,0-4.07.47.74.74,0,0,0-.17,1.18,4.73,4.73,0,0,1,1.75,2.31A4.46,4.46,0,0,0,10.57,90a4.66,4.66,0,0,1,1.5,2.47.74.74,0,0,0,1.16.28,8.09,8.09,0,0,0,2.18-5A7.26,7.26,0,0,0,26.85,80a7.87,7.87,0,0,0,5.48-.17.74.74,0,0,0,.17-1.18,7.08,7.08,0,0,1-1.25-1.26c-.65-1-.35-1.2-1.08-2.28s-1.07-.88-1.72-1.84a7.47,7.47,0,0,1-.71-1.63.77.77,0,0,0-.56-.44Z"/><path class="cls-2" d="M27.18,71.15a.7.7,0,0,0-.6.16,8,8,0,0,0-2.17,5A7.25,7.25,0,0,0,13,84.12a13.93,13.93,0,0,0-1.41-.3,6.72,6.72,0,0,0-4.07.47.74.74,0,0,0-.17,1.18,4.73,4.73,0,0,1,1.75,2.31A4.46,4.46,0,0,0,10.57,90a4.66,4.66,0,0,1,1.5,2.47.74.74,0,0,0,1.16.28,8.09,8.09,0,0,0,2.18-5A7.26,7.26,0,0,0,26.85,80a7.87,7.87,0,0,0,5.48-.17.74.74,0,0,0,.17-1.18,7.08,7.08,0,0,1-1.25-1.26c-.65-1-.35-1.2-1.08-2.28s-1.07-.88-1.72-1.84a7.47,7.47,0,0,1-.71-1.63.77.77,0,0,0-.56-.44Zm-.12.69a15.32,15.32,0,0,0,.81,1.77c.73,1.08,1.06.89,1.72,1.85s.35,1.2,1.08,2.28a4,4,0,0,0,.93,1c.11.08.43.34.42.41-1.57.79-3.83.52-5.48,0a.61.61,0,0,0-.05-.12,6.56,6.56,0,0,0,2.27-.6.36.36,0,0,0-.32-.64,6.06,6.06,0,0,1-2.31.56,5.25,5.25,0,0,0-.33-.49,6.39,6.39,0,0,1,1.36-1.94.35.35,0,0,0-.48-.52,6.87,6.87,0,0,0-1.36,1.85l-.25-.27a7.68,7.68,0,0,1,2-5.1Zm-5.92,3.77a7.47,7.47,0,0,1,1,.28L19.74,88.58a6.51,6.51,0,0,1-2.09-.4l2.42-12.69a6.37,6.37,0,0,1,1.07.12Zm-1.79-.1L17,87.9a6.51,6.51,0,0,1-1.9-1.43l.33-1.72a.36.36,0,0,0-.7-.13l-.21,1.12a6.54,6.54,0,0,1,1.72-9.12h0L15,83.22c-.07.38.62.52.7.13l1.37-7.21a6.57,6.57,0,0,1,2.29-.63Zm3.48.67a6.47,6.47,0,0,1,1.9,1.43l-.41,2.15a.35.35,0,1,0,.69.13l.3-1.55v0a6.54,6.54,0,0,1-1.74,9.09h0l1.18-6.18a.36.36,0,0,0-.7-.13l-1.29,6.78a6.57,6.57,0,0,1-2.29.63ZM11.9,84.6a9.75,9.75,0,0,1,1.37.36c.05.11.1.22.16.33a7,7,0,0,0-2.12.54.35.35,0,0,0,.29.64A6.72,6.72,0,0,1,13.81,86c.11.17.22.33.34.49a6.43,6.43,0,0,1-1.29,1.87.35.35,0,0,0,.49.51,6.67,6.67,0,0,0,1.3-1.8l.09.1c0,.66-.27,3.59-2,5.1-.23,0-.14-1.47-1.76-2.77a3.75,3.75,0,0,1-1.28-1.89c-.59-1.94-2-2.41-1.93-2.65a6.24,6.24,0,0,1,3.63-.4l.47.08Z"/><path class="cls-1" d="M54.29,45a.84.84,0,0,0-.7-.23c-2.51.37-4.52,2.47-5.43,3.58a8.61,8.61,0,0,0-16.41.29,13.42,13.42,0,0,0-1.2-1.21,8,8,0,0,0-4.35-2.19.88.88,0,0,0-.93,1.07,5.61,5.61,0,0,1,.23,3.42,5.3,5.3,0,0,0,.06,3.2,5.59,5.59,0,0,1-.12,3.42.88.88,0,0,0,1,1c2.51-.36,4.52-2.46,5.43-3.58a8.6,8.6,0,0,0,16.41-.28,9.35,9.35,0,0,0,5.55,3.39.87.87,0,0,0,.93-1.06,8.46,8.46,0,0,1-.42-2.06c0-1.38.43-1.43.4-3s-.48-1.57-.5-2.94a8.08,8.08,0,0,1,.35-2.08.91.91,0,0,0-.27-.8Zm-.57.61a18.87,18.87,0,0,0-.35,2.28c0,1.54.48,1.57.51,2.95s-.43,1.42-.41,3a5,5,0,0,0,.28,1.6c0,.15.2.61.14.68-2.07-.23-4.13-2-5.4-3.59a.88.88,0,0,1,0-.16,7.93,7.93,0,0,0,2.64.88.42.42,0,0,0,.1-.84,7.4,7.4,0,0,1-2.66-.95c0-.23,0-.47,0-.7a8,8,0,0,1,2.6-1,.42.42,0,0,0-.14-.83,8.07,8.07,0,0,0-2.54,1c0-.15,0-.29-.08-.44,1.22-1.66,3.22-3.47,5.28-3.77Zm-8.32-.11a7.53,7.53,0,0,1,.83.95l-10.64,11a8,8,0,0,1-1.82-1.76l10.65-11a8.26,8.26,0,0,1,1,.81Zm-1.71-1.26L33.3,55a7.61,7.61,0,0,1-1-2.65l1.44-1.49a.42.42,0,0,0-.6-.58l-.94,1a7.75,7.75,0,0,1,7.63-7.93h0l-5.55,5.74c-.32.33.28.92.61.58l6-6.26a7.66,7.66,0,0,1,2.68.86Zm3,2.93a7.72,7.72,0,0,1,.95,2.65l-1.8,1.86a.42.42,0,0,0,.6.59L47.76,51v0a7.77,7.77,0,0,1-7.63,7.9h0l5.18-5.37a.42.42,0,1,0-.6-.58L39,58.81A7.87,7.87,0,0,1,36.32,58ZM30.39,48.45a11.62,11.62,0,0,1,1.12,1.25l-.06.43A8.35,8.35,0,0,0,29,49.28a.42.42,0,0,0-.13.83,8,8,0,0,1,2.53.94c0,.23,0,.46,0,.7a7.66,7.66,0,0,1-2.5,1,.42.42,0,0,0,.15.82,7.92,7.92,0,0,0,2.47-.94l0,.16c-.46.64-2.61,3.38-5.28,3.78-.25-.12.83-1.55.06-3.89a4.48,4.48,0,0,1,0-2.71c.67-2.31-.4-3.68-.2-3.88a7.47,7.47,0,0,1,3.87,2l.41.38Z"/></g></svg>